<?xml version="1.0" encoding="UTF-8"?>
<svg id="Capa_2" data-name="Capa 2" xmlns="http://www.w3.org/2000/svg" viewBox="0 0 135.4 165.57">
  <defs>
    <style>
      .cls-1 {
        fill: #2d3048;
      }

      .cls-1, .cls-2 {
        fill-rule: evenodd;
      }

      .cls-2, .cls-3 {
        fill: #7e87e3;
      }
    </style>
  </defs>
  <g id="OBJECTS">
    <g>
      <g>
        <g>
          <path class="cls-2" d="m26.89,129.26h68.18c5.08,0,9.24-4.16,9.24-9.24V36.23H28.77c-3.65,0-6.64-2.99-6.64-6.64h0c0-3.65,2.99-6.64,6.64-6.64h75.55v-3.47H26.89c-5.08,0-9.24,4.16-9.24,9.24v91.29c0,5.08,4.16,9.24,9.24,9.24Z"/>
          <path class="cls-1" d="m49.89,68.01h24.11c1.54,0,2.8,1.26,2.8,2.8v23.87c0,1.15-.66,2.14-1.73,2.58-1.07.44-2.23.21-3.05-.61l-10.08-10.08-10.08,10.08c-.82.82-1.98,1.05-3.05.61-1.07-.44-1.73-1.43-1.73-2.58v-23.87c0-1.54,1.26-2.8,2.79-2.8Z"/>
        </g>
        <g>
          <path class="cls-2" d="m69.02,0c15.91,0,26.71,11.35,26.41,26.4-.02.85-.39,1.65-1.09,2.31-.69.67-1.51,1.02-2.38,1.02h-.53c-1.35,0-2.28-.93-2.25-2.25.2-12.19-8.58-21.37-21.48-21.37s-25.65,9.18-30.72,21.37c-.55,1.32-1.88,2.25-3.23,2.25h-.53c-.86,0-1.53-.35-1.94-1.02-.4-.67-.43-1.47-.08-2.31C37.4,11.35,53.11,0,69.02,0Z"/>
          <path class="cls-1" d="m32.81,22.95h6.48c.73-1.2,1.54-2.36,2.42-3.47h-6.85c-.74,1.12-1.43,2.28-2.06,3.47h0Zm56.01,0h6.48c-.11-1.19-.3-2.34-.56-3.47h-6.85c.4,1.11.71,2.27.92,3.47Z"/>
        </g>
      </g>
      <g>
        <path class="cls-3" d="m6.64,161.55c-1.33,0-2.49-.26-3.49-.78-1-.52-1.78-1.23-2.33-2.13-.55-.9-.82-1.93-.82-3.08s.27-2.2.81-3.1,1.28-1.61,2.22-2.12c.94-.51,2-.77,3.18-.77s2.17.24,3.08.72c.92.48,1.64,1.18,2.17,2.08.53.9.8,1.98.8,3.23,0,.13,0,.28-.02.44s-.03.32-.04.46H2.75v-1.97h7.68l-1.3.58c0-.61-.12-1.13-.37-1.58s-.58-.8-1.02-1.05c-.43-.25-.94-.38-1.51-.38s-1.09.13-1.53.38c-.44.25-.78.61-1.03,1.06-.25.45-.37.99-.37,1.61v.52c0,.63.14,1.19.42,1.68s.68.85,1.19,1.1c.51.25,1.11.38,1.81.38.62,0,1.17-.09,1.63-.28s.9-.47,1.29-.84l1.8,1.95c-.53.61-1.2,1.07-2.01,1.4-.81.32-1.74.49-2.79.49Z"/>
        <path class="cls-3" d="m14.76,161.37v-15.15h7.4c1.9,0,3.34.36,4.29,1.08s1.44,1.67,1.44,2.86c0,.79-.19,1.48-.58,2.07s-.92,1.04-1.6,1.35c-.68.32-1.46.48-2.34.48l.41-.89c.95,0,1.8.16,2.53.46.74.31,1.31.77,1.72,1.37.41.61.62,1.35.62,2.23,0,1.3-.51,2.31-1.54,3.04-1.02.73-2.53,1.09-4.52,1.09h-7.83Zm3.48-2.64h4.09c.91,0,1.6-.15,2.07-.44s.7-.77.7-1.42-.23-1.11-.7-1.42c-.47-.31-1.16-.46-2.07-.46h-4.35v-2.55h3.74c.85,0,1.5-.15,1.96-.44.45-.3.68-.75.68-1.35s-.23-1.04-.68-1.33c-.45-.29-1.11-.44-1.96-.44h-3.48v9.87Z"/>
        <path class="cls-3" d="m36.61,161.55c-1.24,0-2.34-.26-3.3-.78-.96-.52-1.72-1.23-2.27-2.13-.56-.9-.83-1.93-.83-3.08s.28-2.2.83-3.1c.55-.9,1.31-1.61,2.27-2.12.96-.51,2.06-.77,3.3-.77s2.32.26,3.29.77c.97.51,1.72,1.21,2.27,2.11s.82,1.93.82,3.12-.27,2.18-.82,3.08c-.55.9-1.31,1.61-2.27,2.13-.97.52-2.06.78-3.29.78Zm0-2.77c.56,0,1.07-.13,1.51-.39.45-.26.8-.63,1.06-1.11.26-.48.39-1.06.39-1.72s-.13-1.25-.39-1.73c-.26-.48-.61-.84-1.06-1.1s-.95-.39-1.51-.39-1.07.13-1.51.39-.8.63-1.07,1.1c-.27.48-.4,1.05-.4,1.73s.13,1.24.4,1.72c.27.48.62.85,1.07,1.11.45.26.95.39,1.51.39Z"/>
        <path class="cls-3" d="m50.78,161.55c-1.24,0-2.34-.26-3.3-.78-.96-.52-1.72-1.23-2.27-2.13-.56-.9-.83-1.93-.83-3.08s.28-2.2.83-3.1c.55-.9,1.31-1.61,2.27-2.12.96-.51,2.06-.77,3.3-.77s2.32.26,3.29.77c.97.51,1.72,1.21,2.27,2.11s.82,1.93.82,3.12-.27,2.18-.82,3.08c-.55.9-1.31,1.61-2.27,2.13-.97.52-2.06.78-3.29.78Zm0-2.77c.56,0,1.07-.13,1.51-.39.45-.26.8-.63,1.06-1.11.26-.48.39-1.06.39-1.72s-.13-1.25-.39-1.73c-.26-.48-.61-.84-1.06-1.1s-.95-.39-1.51-.39-1.07.13-1.51.39-.8.63-1.07,1.1c-.27.48-.4,1.05-.4,1.73s.13,1.24.4,1.72c.27.48.62.85,1.07,1.11.45.26.95.39,1.51.39Z"/>
        <path class="cls-3" d="m59.41,161.37v-16.05h3.38v16.05h-3.38Zm2.79-2.38l.09-4.11,5.43-5.15h4.02l-5.21,5.3-1.75,1.43-2.58,2.53Zm5.89,2.38l-3.94-4.89,2.12-2.62,5.91,7.51h-4.09Z"/>
        <path class="cls-3" d="m84.92,161.63c-1.21,0-2.37-.16-3.48-.49-1.11-.32-2.01-.75-2.68-1.27l1.19-2.64c.65.46,1.42.84,2.3,1.14.89.3,1.79.44,2.69.44.69,0,1.25-.07,1.68-.21.42-.14.74-.33.94-.57.2-.25.3-.53.3-.84,0-.4-.16-.72-.48-.96s-.74-.43-1.25-.58c-.52-.15-1.09-.3-1.72-.43-.63-.14-1.25-.31-1.88-.51-.63-.2-1.2-.46-1.72-.78-.52-.32-.94-.74-1.27-1.25-.32-.52-.49-1.18-.49-1.99,0-.87.23-1.66.7-2.37.47-.71,1.17-1.28,2.12-1.71.94-.43,2.13-.64,3.56-.64.95,0,1.89.11,2.81.34.92.22,1.74.56,2.44,1.01l-1.08,2.66c-.71-.4-1.41-.7-2.12-.9-.71-.2-1.4-.29-2.08-.29s-1.23.08-1.67.24c-.43.16-.74.36-.93.62-.19.25-.28.54-.28.88,0,.39.16.7.48.94.32.24.74.43,1.25.57s1.09.29,1.72.43c.63.14,1.25.31,1.88.5.63.19,1.2.44,1.72.76.52.32.94.74,1.27,1.25.33.52.49,1.18.49,1.97,0,.85-.24,1.63-.71,2.34-.48.71-1.19,1.28-2.13,1.71-.94.43-2.14.65-3.58.65Z"/>
        <path class="cls-3" d="m93.51,161.37v-16.05h3.38v7.64l-.76-.97c.42-.78,1.02-1.38,1.8-1.79.78-.42,1.67-.63,2.66-.63.92,0,1.75.18,2.48.55s1.3.93,1.72,1.69c.42.76.63,1.73.63,2.91v6.66h-3.38v-6.14c0-.94-.21-1.63-.62-2.08s-.99-.67-1.74-.67c-.53,0-1.01.11-1.44.33-.43.22-.76.57-1,1.03s-.36,1.05-.36,1.77v5.75h-3.38Z"/>
        <path class="cls-3" d="m114.09,161.55c-1.24,0-2.34-.26-3.3-.78-.96-.52-1.72-1.23-2.27-2.13-.56-.9-.83-1.93-.83-3.08s.28-2.2.83-3.1c.55-.9,1.31-1.61,2.27-2.12.96-.51,2.06-.77,3.3-.77s2.32.26,3.29.77c.97.51,1.72,1.21,2.27,2.11s.82,1.93.82,3.12-.27,2.18-.82,3.08c-.55.9-1.31,1.61-2.27,2.13-.97.52-2.06.78-3.29.78Zm0-2.77c.56,0,1.07-.13,1.51-.39.45-.26.8-.63,1.06-1.11.26-.48.39-1.06.39-1.72s-.13-1.25-.39-1.73c-.26-.48-.61-.84-1.06-1.1s-.95-.39-1.51-.39-1.07.13-1.51.39-.8.63-1.07,1.1c-.27.48-.4,1.05-.4,1.73s.13,1.24.4,1.72c.27.48.62.85,1.07,1.11.45.26.95.39,1.51.39Z"/>
        <path class="cls-3" d="m122.72,165.57v-15.84h3.22v2.38l-.06,3.46.22,3.44v6.56h-3.38Zm6.88-4.02c-.98,0-1.84-.22-2.58-.65-.74-.43-1.31-1.09-1.72-1.98-.41-.89-.62-2.01-.62-3.36s.2-2.5.58-3.38c.39-.88.95-1.54,1.69-1.97.74-.43,1.62-.65,2.64-.65,1.1,0,2.08.25,2.95.75.87.5,1.56,1.19,2.08,2.09.51.89.77,1.95.77,3.16s-.26,2.29-.77,3.18c-.51.89-1.21,1.59-2.08,2.08-.87.49-1.86.74-2.95.74Zm-.58-2.77c.56,0,1.06-.13,1.5-.39.44-.26.79-.63,1.06-1.11.27-.48.4-1.06.4-1.72s-.13-1.25-.4-1.73c-.27-.48-.62-.84-1.06-1.1-.44-.26-.94-.39-1.5-.39s-1.07.13-1.51.39c-.45.26-.8.63-1.06,1.1-.26.48-.39,1.05-.39,1.73s.13,1.24.39,1.72.61.85,1.06,1.11c.45.26.95.39,1.51.39Z"/>
      </g>
    </g>
  </g>
</svg>